<svg width="94" height="110" viewBox="0 0 94 110" fill="none" xmlns="http://www.w3.org/2000/svg">
<g opacity="0.5" clip-path="url(#clip0_15_216)">
<path d="M31.882 83.0057C31.1995 82.4049 29.3889 80.6427 29.1073 78.002C28.8034 75.1359 30.4968 73.0059 31.7588 71.4151C32.4881 70.5003 34.2465 68.4947 39.6018 65.8359C40.5755 65.354 43.7223 63.8275 49.3877 62.1157C53.51 60.8702 56.8848 59.8686 61.5093 59.4411C66.6015 58.9711 69.942 58.7121 72.8046 60.9139C73.3484 61.3281 75.9039 63.2967 76.1809 66.3992C76.3187 67.9399 75.8327 69.1255 75.5518 69.7987C74.8341 71.5057 73.5608 72.7807 67.3911 76.399C64.8005 77.9187 63.507 78.6752 62.3763 79.2149C58.751 80.9282 55.8286 81.6651 52.8505 82.3935C48.6075 83.4356 45.8405 84.1098 41.9834 84.1947C39.4156 84.2501 35.945 84.0489 31.882 83.0057Z" fill="#F18A98" stroke="#4F0B24" stroke-width="1.3333" stroke-miterlimit="10"/>
<path d="M64.7658 52.4302C66.4963 51.4683 67.3486 49.9709 68.1342 48.5554C69.339 46.388 69.7418 44.4774 70.0585 42.5902C70.8666 37.7718 71.268 35.3635 70.9799 32.4921C70.3694 26.4521 67.6172 22.2206 66.455 20.6048C65.6458 19.4832 62.5295 15.3407 56.6265 12.3772C55.1866 11.6555 52.3441 10.2538 48.2643 9.67106C44.9371 9.19465 42.3285 9.48025 38.9994 9.84381C35.1092 10.27 33.1633 10.4807 30.7523 11.3935C26.158 13.1269 23.3839 16.0345 21.1502 18.3773C17.2915 22.4212 15.4695 26.3324 14.81 27.8792C12.9801 32.1721 12.6032 35.834 12.5079 37.7502C12.4027 39.9893 12.2461 44.2762 14.4407 49.127C16.4166 53.4983 19.3071 56.1187 20.4525 57.0849C21.2708 57.7757 23.4374 59.495 26.7343 60.8317C29.2059 61.8265 31.679 62.8262 34.4119 62.0496C35.6198 61.7061 35.6635 61.3613 37.728 60.2554C38.4119 59.8918 39.6037 59.2884 45.1732 57.43C49.0237 56.1451 50.9489 55.5027 53.2806 54.898C56.332 54.1072 57.856 53.707 59.6965 53.4448C62.4846 53.0452 63.3718 53.2203 64.7691 52.44L64.7658 52.4302Z" stroke="#4F0B24" stroke-width="1.3333" stroke-miterlimit="10"/>
<path d="M33.6754 62.6962C30.0276 64.8881 28.2445 66.4849 27.21 67.5069C25.3223 69.3715 23.1195 71.5957 22.0461 75.073C21.6141 76.4734 20.6926 79.4723 22.0843 82.674C22.3884 83.3739 23.384 85.5652 25.8046 86.9181C27.9633 88.1202 30.1813 88.0028 34.5258 87.7228C37.8284 87.5089 41.8875 86.9018 45.22 87.5173C45.7142 87.6068 46.566 87.7991 47.4275 88.3727C48.8889 89.3526 48.5961 90.5008 49.5275 91.2135C50.6477 92.069 52.1165 91.2918 56.6972 90.2399C61.9321 89.0346 63.0202 89.3539 63.8903 88.1917C65.1096 86.561 63.6606 85.0192 64.9943 82.8684C65.7485 81.6583 66.7913 81.2074 68.7203 80.2064C72.0079 78.5029 75.4123 76.7442 77.8294 74.6867C78.6493 73.9907 81.3964 71.6012 82.8035 67.7147C83.433 65.9722 84.772 62.2871 82.9651 58.9857C81.2049 55.7716 77.4827 54.7988 74.8028 54.0955C73.2639 53.6939 70.741 53.2144 63.2081 53.8922C57.5361 54.404 54.4153 54.6872 50.0127 55.8151C47.8044 56.3841 41.0653 58.2429 33.6668 62.6882L33.6754 62.6962Z" stroke="#4F0B24" stroke-width="1.3333" stroke-miterlimit="10"/>
<path d="M20.6851 80.0488C21.3359 84.7648 22.555 88.2949 23.4864 90.54C24.3023 92.5097 24.7316 93.5144 25.5519 94.405C27.4854 96.4999 29.3666 95.9371 33.4549 97.091C35.9997 97.8123 35.9353 98.2182 38.4513 99.0466C39.6806 99.4541 42.6029 100.32 49.9534 100.153C54.8548 100.044 57.3091 99.9833 59.9443 99.3369C65.5384 97.9576 69.3759 95.2421 71.7832 93.5075C72.5844 92.9315 74.6776 91.0308 78.864 87.2296C82.8197 83.6353 83.8644 82.5556 84.8482 80.4837C85.4222 79.2795 86.7464 76.3954 86.6858 72.0564C86.6129 66.4652 84.2851 62.1138 83.4304 60.6445" stroke="#4F0B24" stroke-width="1.3333" stroke-miterlimit="10"/>
<path d="M32.0274 17.9103C30.7091 18.6805 28.7093 19.8568 26.7442 21.7364C23.1616 25.1628 21.8022 28.8926 20.9394 31.3628C20.2334 33.3692 18.8698 37.4036 19.5368 42.5204C19.7872 44.4513 20.2375 47.6151 22.5363 50.8931C22.8503 51.3407 25.7306 55.3399 30.8279 57.3159C39.8575 60.8066 51.1644 56.1131 57.7675 50.2004C60.0084 48.1964 66.5257 42.361 66.5697 33.5792C66.6145 24.9054 60.3151 19.6969 59.1804 18.7976C52.9257 13.8287 44.5592 13.2413 39.0032 14.8407C37.244 15.3465 34.6335 16.4017 32.0343 17.9134L32.0274 17.9103Z" stroke="#4F0B24" stroke-width="1.3333" stroke-miterlimit="10"/>
</g>
<defs>
<clipPath id="clip0_15_216">
<rect width="67.4912" height="93.2935" fill="white" transform="translate(0 21.3625) rotate(-18.4528)"/>
</clipPath>
</defs>
</svg>
