<svg width="75" height="117" viewBox="0 0 75 117" fill="none" xmlns="http://www.w3.org/2000/svg">
<g opacity="0.5" clip-path="url(#clip0_15_198)">
<path d="M15.152 19.9484C18.3407 20.2374 21.3267 17.5787 22.3653 14.6423C23.4038 11.7059 22.972 8.57124 22.5368 5.56456C17.34 8.53965 14.1613 14.5229 14.8382 20.0736" fill="#A7191E"/>
<path d="M15.0656 20.4384C18.2897 20.6795 21.1457 18.4017 22.4759 15.6948C24.0639 12.4718 23.5446 8.79844 23.0647 5.49744C23.0059 5.09911 22.5934 4.9768 22.2371 5.17793C16.8674 8.28946 13.6637 14.3923 14.3182 20.1376C14.3877 20.7678 15.4327 20.6295 15.3632 19.9992C14.7406 14.5618 17.7867 8.88452 22.8522 5.94493L22.0246 5.62542C22.459 8.60714 22.9752 11.8852 21.7467 14.8468C20.7162 17.3245 18.1857 19.6665 15.2542 19.4522C14.5898 19.405 14.4061 20.3809 15.0734 20.4353L15.0656 20.4384Z" fill="#4F0B24"/>
<path d="M15.0261 20.2939C16.0231 27.5137 18.1056 34.5369 21.1906 41.1096L15.0261 20.2939Z" fill="#CA1522"/>
<path d="M14.5011 20.3683C15.5263 27.6359 17.6097 34.6841 20.6992 41.314C20.9628 41.8837 21.9464 41.4999 21.6799 40.9229C18.6222 34.373 16.558 27.4185 15.5412 20.2403C15.456 19.6163 14.4081 19.7474 14.4962 20.3787L14.5011 20.3683Z" fill="#4F0B24"/>
<path d="M22.9742 5.17923C26.5547 6.22296 28.2416 9.92837 29.5181 13.266C32.2829 20.4725 35.0478 27.6791 37.8127 34.8856" fill="#B51733"/>
<path d="M22.7567 5.63713C25.2197 6.40949 26.7149 8.40299 27.7777 10.5436C28.9627 12.9223 29.8014 15.4813 30.754 17.9611C32.9474 23.6662 35.13 29.3672 37.3234 35.0723C37.5556 35.6546 38.5313 35.2739 38.304 34.6812C35.9763 28.6163 33.6485 22.5514 31.3207 16.4866C29.698 12.2579 28.2516 6.30545 23.1887 4.71405C22.5642 4.51603 22.1214 5.43496 22.7538 5.62985L22.7567 5.63713Z" fill="#4F0B24"/>
<path d="M21.4838 41.6169L38.0786 35.3701C38.712 35.1343 38.3492 34.2246 37.7158 34.4603L21.121 40.7071C20.4876 40.9429 20.8504 41.8526 21.4838 41.6169Z" fill="#4F0B24"/>
<path d="M21.1103 40.703C19.1697 41.2407 19.1453 43.5281 19.4664 44.9944C20.0807 47.8115 21.0143 50.5857 21.9511 53.2996C23.9097 58.9634 26.3713 64.4519 29.2755 69.7048C29.5754 70.2517 30.5589 69.8679 30.2561 69.3138C27.7277 64.7292 25.5328 59.9779 23.7116 55.0692C22.8232 52.6819 22.026 50.2498 21.3131 47.8009C20.9373 46.5167 19.1278 42.2528 21.4702 41.6055C22.1268 41.428 21.7533 40.514 21.1074 40.6957L21.1103 40.703Z" fill="#4F0B24"/>
<path d="M29.8857 70.2545C37.796 69.3184 45.2869 65.7574 50.9936 60.276C51.4812 59.8116 50.6657 59.2258 50.1859 59.6871C44.6818 64.9696 37.4108 68.3754 29.7963 69.2778C29.1283 69.3586 29.2099 70.3384 29.8886 70.2617L29.8857 70.2545Z" fill="#4F0B24"/>
<path d="M37.9736 35.0155C40.0696 34.2977 41.0992 37.7 41.6112 38.9383C42.5926 41.3308 43.5739 43.7232 44.5553 46.1156C46.5181 50.9004 48.4808 55.6852 50.4514 60.4669C50.6836 61.0492 51.675 60.6622 51.4321 60.0758C49.1741 54.5736 46.9162 49.0714 44.6504 43.5723C44.1093 42.2612 43.5732 40.9397 43.0322 39.6286C42.5492 38.4631 42.1487 37.2309 41.5117 36.1352C40.731 34.7931 39.4107 33.4891 37.6107 34.1057C36.9715 34.3269 37.3343 35.2367 37.9736 35.0155Z" fill="#4F0B24"/>
<path d="M29.3994 69.377C27.0727 69.7903 25.7359 72.4577 26.0841 74.6302C26.4322 76.8028 27.9489 78.5768 29.4143 80.2447C33.5431 77.898 38.3421 76.6843 43.0389 76.8105C41.6371 73.6831 39.9244 70.6882 37.9319 67.8807" fill="#661220"/>
<path d="M29.3587 68.8872C27.0425 69.3722 25.6553 71.5029 25.527 73.6208C25.3566 76.3629 27.293 78.6191 28.993 80.5562C29.1887 80.7734 29.4647 80.7814 29.7248 80.6355C33.7583 78.369 38.3789 77.2096 42.9554 77.3078C43.3215 77.3136 43.6998 76.9856 43.5361 76.6207C42.1012 73.4559 40.374 70.4245 38.3641 67.5734C38.0043 67.0589 37.1509 67.6777 37.5106 68.1922C39.4729 70.9695 41.1575 73.9166 42.5526 77.0045L43.1333 76.3174C38.2543 76.2132 33.4132 77.4352 29.1118 79.8508L29.8436 79.9302C28.4142 78.3069 26.7743 76.4977 26.5723 74.2584C26.4161 72.4986 27.4239 70.283 29.4481 69.8638C30.1114 69.7258 30.0191 68.7419 29.3558 68.8799L29.3587 68.8872Z" fill="#4F0B24"/>
<path d="M43.0667 76.3102C48.1255 73.1033 53.1951 69.9005 58.254 66.6936C57.9921 64.4866 57.6644 62.1372 56.1244 60.5328C54.5843 58.9284 51.3576 58.6124 49.9912 60.4986" fill="#8F162E"/>
<path d="M43.3771 76.7009C48.436 73.494 53.5055 70.2913 58.5644 67.0844C58.7175 66.9896 58.8007 66.7877 58.7819 66.6265C58.4711 64.0004 58.0173 60.7649 55.3968 59.3467C53.5895 58.3719 50.9797 58.4172 49.5913 60.2026C49.1826 60.7283 49.9903 61.3172 50.399 60.7915C51.5924 59.2696 53.9357 59.4908 55.3013 60.4983C57.2084 61.9057 57.4738 64.6005 57.7368 66.7649L57.9543 66.307C52.8954 69.5139 47.8259 72.7166 42.767 75.9235C42.1937 76.2871 42.8087 77.0542 43.3771 76.7009Z" fill="#4F0B24"/>
<path d="M29.1167 80.4562C32.6494 91.7769 37.2016 102.758 42.7339 113.256C42.8698 113.506 43.1091 113.604 43.4003 113.514C47.6022 112.285 51.8013 111.049 56.0032 109.82C56.2708 109.739 56.4153 109.394 56.3097 109.175C51.4658 98.1918 46.7759 87.1386 42.2429 76.0229C42.0107 75.4406 41.0193 75.8276 41.2622 76.414C45.7952 87.5297 50.4851 98.5829 55.329 109.566L55.6355 108.921C51.4335 110.15 47.2344 111.386 43.0325 112.614L43.6989 112.871C38.1744 102.37 33.6143 91.3921 30.0817 80.0714C29.8965 79.4704 28.9159 79.8614 29.101 80.4625L29.1167 80.4562Z" fill="#4F0B24"/>
<path d="M58.2693 66.7549C61.8807 78.8203 66.3313 90.6185 71.591 102.052L71.7777 101.471C66.9407 105.189 61.2673 107.721 55.2561 108.836C54.5948 108.956 54.6793 109.943 55.3484 109.82C61.5468 108.672 67.4063 106.083 72.3957 102.245C72.5686 102.109 72.6686 101.858 72.5824 101.665C67.3198 90.2243 62.8643 78.4365 59.2607 66.368C59.0834 65.7639 58.1028 66.1549 58.2801 66.7591L58.2693 66.7549Z" fill="#4F0B24"/>
</g>
<defs>
<clipPath id="clip0_15_198">
<rect width="34.7874" height="110.435" fill="white" transform="translate(0.937332 13.453) rotate(-21.7422)"/>
</clipPath>
</defs>
</svg>
