<svg width="113" height="85" viewBox="0 0 113 85" fill="none" xmlns="http://www.w3.org/2000/svg">
<g opacity="0.5" clip-path="url(#clip0_15_194)">
<path d="M58.6731 12.8126C51.2694 9.66651 49.7008 7.05376 46.5904 5.87743C37.9447 2.60217 32.2922 11.591 14.6019 23.3726C11.4628 25.4662 6.93824 25.6687 6.18635 28.8915C5.55076 31.6195 7.80827 34.2375 10.6873 38.2583C17.3547 47.5669 15.5383 47.9209 20.8121 55.0262C24.172 59.5596 31.3745 69.2761 43.5804 74.5473C47.0654 76.0602 54.2024 79.0336 63.5921 78.0269C73.9865 76.906 72.6049 72.4511 95.9684 60.8451C101.14 58.2771 106.617 55.8124 107.285 51.209C107.68 48.486 106.191 46.3197 104.459 43.6601C93.9231 27.4222 96.6463 26.418 90.1811 19.7007C84.4537 13.7421 80.1119 9.22642 74.9947 10.4947C71.4796 11.3678 69.2648 14.5438 64.2413 14.3682C62.8782 14.3224 61.5283 14.0294 58.6911 12.8275L58.6731 12.8126Z" fill="#921727" stroke="#4F0B24" stroke-width="1.3334" stroke-miterlimit="10"/>
<path d="M31.1223 37.0146C31.9955 33.111 53.3819 36.2521 55.9214 36.6175C63.4582 37.7275 80.4852 41.0311 80.2291 44.6564C80.0238 47.5292 68.9728 50.3422 59.0632 49.7854C44.0351 48.9407 30.395 40.2781 31.1338 37.0037L31.1223 37.0146Z" fill="#FCE6EA" stroke="#4F0B24" stroke-width="1.3334" stroke-miterlimit="10"/>
</g>
<defs>
<clipPath id="clip0_15_194">
<rect width="104.168" height="71.7949" fill="white" transform="translate(9.5401) rotate(7.63605)"/>
</clipPath>
</defs>
</svg>
