<svg width="88" height="105" viewBox="0 0 88 105" fill="none" xmlns="http://www.w3.org/2000/svg">
<g opacity="0.5" clip-path="url(#clip0_73_335)">
<path d="M51.5218 89.4575C51.634 89.4101 51.718 89.3442 51.7311 89.3366C68.373 82.8258 73.8461 64.918 63.4187 50.2583C63.0669 49.7549 60.8367 47.3879 60.8658 47.1967C60.9419 46.83 61.1736 47.0801 61.3633 47.1973C62.5247 47.9398 65.1883 52.2806 65.87 53.6576C70.4525 62.8476 70.3481 72.1529 64.2832 80.7126C61.2972 84.922 56.4232 87.8403 51.7718 89.8451L51.9811 93.274C51.2573 93.1686 51.715 90.1396 51.4248 89.9844C40.1044 94.5482 23.4905 88.9022 16.6309 79.0469C12.1449 72.5921 11.382 63.552 13.8281 56.1569C16.5931 47.8188 24.1123 41.385 32.226 38.5938C32.2534 38.6564 32.3826 38.8348 32.3771 38.8554C32.319 39.0721 28.9216 40.3181 28.357 40.6092C9.20366 50.3838 6.64158 76.4145 26.4538 86.9648C34.3129 91.1497 43.1111 92.6556 51.5218 89.4575Z" stroke="#432918" stroke-width="1.3333" stroke-miterlimit="10"/>
<path d="M38.9245 34.8926C38.8886 35.0267 38.8499 35.1712 38.8112 35.3156C32.9732 35.1447 25.8757 36.9917 21.1627 40.5061C8.41964 50.0079 4.38589 65.2271 11.6861 79.5466C17.6166 91.1767 38.2332 98.2712 50.3597 94.62C50.9716 94.4412 53.9963 93.0178 54.1758 93.1322C54.2143 93.1536 54.2946 93.3078 54.2443 93.3718C46.6611 97.4441 37.4513 96.0711 29.5711 93.4509C17.5086 89.4337 10.0086 82.3814 8.17731 69.5274C6.34606 56.6734 11.3275 47.2041 21.3202 39.918C26.1158 36.4257 33.0945 35.0224 38.9245 34.8926Z" stroke="#432918" stroke-width="1.3333" stroke-miterlimit="10"/>
<path d="M58.0867 40.4805C58.1005 40.4289 58.1171 40.367 58.131 40.3154C69.7206 47.9548 75.356 61.8834 71.2678 75.4072C69.7342 80.4702 65.4396 88.0777 60.755 90.8256C60.6372 90.8936 60.202 91.1972 60.2051 90.8552C60.2061 90.6454 62.9707 88.4999 63.3634 88.1075C67.3475 84.1766 70.4023 78.1832 71.6239 72.7159C74.38 60.2838 68.4853 47.4468 58.0764 40.4777L58.0867 40.4805Z" stroke="#432918" stroke-width="1.3333" stroke-miterlimit="10"/>
<path d="M57.4792 92.8562C57.5617 92.8783 57.6483 92.9679 57.6524 93.0353C57.6595 93.38 53.4961 95.3387 52.8806 95.5719C46.4821 98.0707 39.1824 97.4528 32.5905 95.8856C31.9143 95.7265 29.8951 95.296 29.402 95.0312C29.0733 94.8546 29.1424 94.5967 29.5153 94.6082C30.6445 94.6453 33.5885 95.7106 34.9858 95.9855C42.1841 97.3945 48.2679 97.4323 54.9424 94.2334C55.2977 94.0632 57.3271 92.8044 57.4716 92.8431L57.4792 92.8562Z" stroke="#432918" stroke-width="1.3333" stroke-miterlimit="10"/>
<path d="M58.5492 22.8224L82.4167 30.2904L82.3336 30.7658L58.5492 22.8224Z" stroke="#432918" stroke-width="1.3333" stroke-miterlimit="10"/>
<path d="M73.2245 21.5461C73.3315 21.807 73.1259 21.7077 72.9709 21.8321L59.312 19.5213C59.3618 19.3356 59.472 19.2545 59.483 19.2132C61.1009 19.7794 62.9017 19.7865 64.6025 20.0431C67.4715 20.4801 70.3783 20.9825 73.2245 21.5461Z" stroke="#432918" stroke-width="1.3333" stroke-miterlimit="10"/>
<path d="M62.0805 28.2583C62.0805 28.2583 62.1109 28.1448 62.1248 28.0933C63.7473 29.3021 68.7357 30.9926 70.8946 32.0577C71.704 32.4625 72.5183 32.8908 73.285 33.3727L62.0805 28.2583Z" stroke="#432918" stroke-width="1.3333" stroke-miterlimit="10"/>
<path d="M51.6736 42.6214C51.5858 42.9076 51.635 43.2193 51.6147 43.5014L51.3228 43.6001C51.3315 43.2375 51.4255 42.8867 51.3433 42.5329C51.4596 42.553 51.5676 42.6041 51.6736 42.6214Z" stroke="#432918" stroke-width="1.3333" stroke-miterlimit="10"/>
<path d="M51.62 86.0777C51.2796 74.0987 51.2324 62.0988 51.4673 50.1191L62.6529 53.1163C69.1169 65.2321 64.4024 80.5565 51.62 86.0777Z" stroke="#432918" stroke-width="1.3333" stroke-miterlimit="10"/>
<path d="M49.623 49.6138C49.3811 61.7022 49.3304 74.439 49.8895 86.5098C49.5202 86.8974 48.5862 87.1226 48.0265 87.2713C38.4338 89.7214 28.7157 86.9848 21.9316 79.7373C11.3901 68.4751 14.0246 51.7087 26.8803 43.5199L49.6333 49.6166L49.623 49.6138Z" stroke="#432918" stroke-width="1.3333" stroke-miterlimit="10"/>
<path d="M26.4209 46.1836C22.2983 50.3428 19.2948 55.4432 18.0342 61.2207C17.8682 62.0056 17.9098 62.9235 17.602 63.6594C17.4719 56.5914 20.6834 50.2197 26.4237 46.1733L26.4209 46.1836Z" stroke="#432918" stroke-width="1.3333" stroke-miterlimit="10"/>
<path d="M51.1295 50.0175C50.8856 62.0722 51.0766 74.1549 51.4004 86.1958L50.2197 86.5983C49.9892 74.2506 49.6986 62.0859 49.9532 49.7023L51.1295 50.0175Z" stroke="#432918" stroke-width="1.3333" stroke-miterlimit="10"/>
<path d="M50.1228 42.3828C50.0325 44.8247 50.0097 47.2625 49.9532 49.7023C49.7013 62.0755 49.992 74.2403 50.2197 86.5983C50.2394 87.4329 50.4129 88.5189 50.0921 89.2623C50.0945 88.3451 49.9236 87.4146 49.8895 86.5098C49.3407 74.4418 49.3886 61.7153 49.623 49.6138C49.6664 47.1815 49.8317 44.7487 49.8751 42.3165C49.9577 42.3386 50.0918 42.3745 50.1228 42.3828Z" stroke="#432918" stroke-width="1.3333" stroke-miterlimit="10"/>
<path d="M51.4701 50.1088C51.2324 62.0988 51.2824 74.0884 51.6228 86.0674C51.6539 87.1484 51.7806 88.244 51.7339 89.3263C51.7105 89.331 51.634 89.4101 51.5246 89.4471C51.4391 88.3626 51.4445 87.2693 51.4134 86.1883C51.0793 74.1446 50.8987 62.0646 51.1426 50.01C51.1837 47.8756 51.2612 45.7289 51.3359 43.5926L51.6278 43.4938C51.5234 45.6997 51.5201 47.8994 51.4728 50.0984L51.4701 50.1088Z" stroke="#432918" stroke-width="1.3333" stroke-miterlimit="10"/>
<path d="M58.131 40.3154C58.1171 40.367 58.1006 40.4289 58.0867 40.4805C57.8401 41.277 57.7507 42.4362 56.8874 42.7689C56.1129 43.059 52.6093 42.7616 51.6708 42.6318C51.5648 42.6144 51.4465 42.5606 51.3406 42.5433C50.9477 42.4823 50.4557 42.461 50.12 42.3932C50.089 42.3849 49.9446 42.3462 49.8724 42.3268C46.7373 41.6858 42.2639 40.3434 39.6035 38.5911C37.771 37.3813 38.3589 37.2513 38.8187 35.3287C38.8547 35.1946 38.8934 35.0501 38.9321 34.9057C39.7418 31.595 40.7915 28.3376 41.5393 25.0103L41.7265 24.972L38.5605 37.2832C38.5929 37.8227 41.689 39.3932 42.2777 39.6726C46.0212 41.4276 50.7913 42.6947 54.9345 42.7101C55.9502 42.7168 56.9863 42.8949 57.4631 41.8173C58.8416 38.7365 59.1054 33.2116 60.5401 30.3338C60.5698 30.2643 60.76 30.0499 60.8488 30.0073C59.9206 33.43 59.1699 36.9334 58.1282 40.3257L58.131 40.3154Z" stroke="#432918" stroke-width="1.3333" stroke-miterlimit="10"/>
<path d="M42.2278 26.4444C47.2913 29.8359 53.9967 30.8143 59.9968 31.2056C59.1054 33.8308 58.4395 36.605 57.4476 39.1923C56.4557 41.7796 56.3621 41.7988 53.6709 41.7301C48.6717 41.607 43.3076 39.9154 39.1875 37.1305L42.2278 26.4444Z" stroke="#432918" stroke-width="1.3333" stroke-miterlimit="10"/>
<path d="M42.6466 27.8946C43.1992 27.8547 43.1805 28.5022 43.1457 28.8799C42.8911 31.2335 41.4205 34.2454 41.0584 36.6697C40.6466 36.9685 40.2723 36.8793 40.1622 36.3411L42.3849 28.0457C42.4579 28.021 42.5922 27.8911 42.6466 27.8946Z" stroke="#432918" stroke-width="1.3333" stroke-miterlimit="10"/>
<path d="M59.5931 17.4403L59.4356 18.0284C59.2425 17.7997 59.2566 18.0357 59.2152 18.1905C58.9844 18.9691 58.8483 20.5914 57.9797 20.7789C58.1684 17.722 54.027 16.6676 52.9213 19.5562C51.6367 22.9055 55.6739 25.3806 57.4714 22.3457L57.8569 22.2278C57.5496 23.7047 57.2444 25.2153 56.6792 26.6231C54.9548 27.1563 49.1313 25.1978 47.547 24.1762C48.2708 21.9704 48.8659 19.7081 49.4376 17.4505C49.551 17.0275 49.5798 15.3101 50.1558 15.2654C50.6878 15.22 54.0584 16.3443 54.9334 16.5456C55.5581 16.6908 59.3958 17.31 59.5931 17.4403Z" stroke="#432918" stroke-width="1.3333" stroke-miterlimit="10"/>
<path d="M50.7974 16.2556L51.146 16.4818C50.6457 17.1107 49.7649 22.9569 49.2833 22.9384C49.1071 22.9354 48.8412 22.5656 48.8386 22.4101C48.8307 22.1094 50.2621 16.8089 50.4089 16.5497C50.4462 16.4933 50.743 16.2521 50.8002 16.2453L50.7974 16.2556Z" stroke="#432918" stroke-width="1.3333" stroke-miterlimit="10"/>
<path d="M59.4356 18.0283C58.8909 20.0609 58.1553 24.2098 57.4198 25.8816C57.3149 26.1078 56.9552 26.5422 56.6792 26.6231C57.2444 25.2153 57.5496 23.7047 57.8569 22.2278L57.4714 22.3456C57.8313 21.7454 57.9389 21.5088 57.9797 20.7788C58.8483 20.5914 58.9741 18.9663 59.2152 18.1905C59.2566 18.0357 59.2425 17.7997 59.4356 18.0283Z" stroke="#432918" stroke-width="1.3333" stroke-miterlimit="10"/>
<path d="M51.3433 42.533C51.4358 42.8895 51.3391 43.2506 51.3228 43.6001C51.2481 45.7365 51.1706 47.8832 51.1295 50.0175L49.9532 49.7023C50.0097 47.2625 50.0222 44.8219 50.1228 42.3829C50.4585 42.4507 50.9505 42.4719 51.3433 42.533Z" stroke="#432918" stroke-width="1.3333" stroke-miterlimit="10"/>
<path d="M47.5443 24.1865C49.1285 25.2081 54.952 27.1666 56.6764 26.6334C56.9525 26.5526 57.3122 26.1182 57.417 25.8919C58.1525 24.2201 58.891 20.061 59.4328 18.0387L59.5904 17.4506C59.6571 17.4906 59.8078 17.4646 59.827 17.5582C59.6007 18.0726 59.6034 18.6816 59.4727 19.2105C59.4589 19.2621 59.3515 19.3329 59.3017 19.5186C58.8704 21.1281 58.2355 22.6721 58.0106 24.3369C58.905 25.0853 59.9876 25.5854 60.8317 26.3977C61.2193 26.767 61.8869 27.9079 62.1248 28.0933C62.1109 28.1449 62.1019 28.2199 62.0805 28.2584C61.3159 29.5022 61.8153 29.7023 60.0319 30.0428C55.6695 30.8865 44.9763 28.1982 41.9165 24.9234C39.4141 22.2513 43.4821 21.3508 45.4963 21.3044C46.554 21.2782 45.9368 21.7653 46.7029 21.6719L48.6023 14.4179C48.5608 15.1919 48.3513 16.0978 48.1701 16.8566C47.7427 18.6994 46.8433 21.0239 46.5749 22.8098C46.4438 23.6705 46.9391 23.8032 47.5518 24.1996L47.5443 24.1865Z" stroke="#432918" stroke-width="1.3333" stroke-miterlimit="10"/>
<path d="M46.3262 21.8806C46.9061 22.0692 46.1568 23.1733 46.4061 23.605C47.2136 25.0489 54.661 27.0555 56.3919 26.9111C57.7387 26.7964 57.3238 26.1987 58.0027 25.2747C59.5171 25.9791 60.0466 27.4701 57.9633 27.7745C55.6356 28.1239 46.5495 25.7114 44.8289 24.1666C43.3482 22.841 45.4526 21.5913 46.3393 21.8731L46.3262 21.8806Z" stroke="#432918" stroke-width="1.3333" stroke-miterlimit="10"/>
<path d="M58.0571 24.659C60.9811 26.294 64.4247 29.7048 58.5194 29.9914C54.1936 30.2035 46.204 28.0738 42.7685 25.4171C39.0415 22.5274 43.468 21.5682 45.9474 21.6022C43.5463 22.308 43.4733 23.5712 45.5162 24.9037C47.9565 26.4865 55.4472 28.5379 58.2804 27.8705C59.9923 27.4666 59.8421 26.3758 58.6852 25.3691C58.5319 25.2396 57.5894 25.0423 58.0674 24.6617L58.0571 24.659Z" stroke="#432918" stroke-width="1.3333" stroke-miterlimit="10"/>
<path d="M59.8485 27.3838C61.4563 29.4734 56.6967 29.2818 55.5889 29.2061C52.3873 28.9786 48.102 28.0073 45.2583 26.5265C44.3567 26.0527 41.7898 24.447 43.2278 23.3727C45.674 26.461 51.046 28.4533 54.9048 28.7463C56.2376 28.8491 59.3417 28.8625 59.8513 27.3735L59.8485 27.3838Z" stroke="#432918" stroke-width="1.3333" stroke-miterlimit="10"/>
<path d="M54.4765 8.88128C58.0828 9.70381 63.2853 11.2969 66.2727 13.4796C68.2769 14.9566 68.8902 16.5475 65.7973 16.9462C61.0787 17.5508 48.0549 14.1495 44.3666 11.1154C43.2597 10.2106 42.5798 9.03322 44.31 8.31355C46.4993 7.40729 52.143 8.34448 54.4868 8.88404L54.4765 8.88128Z" stroke="#432918" stroke-width="1.3333" stroke-miterlimit="10"/>
<path d="M54.347 9.03456C57.3623 9.70981 60.8856 10.8419 63.64 12.2434C65.4899 13.1814 70.6721 16.2951 65.3963 16.7503C60.5513 17.1662 48.6805 14.0849 44.8014 11.1435C43.5529 10.1897 42.8116 9.11744 44.7227 8.42415C46.7329 7.69106 52.1889 8.54476 54.3497 9.02424L54.347 9.03456Z" stroke="#432918" stroke-width="1.3333" stroke-miterlimit="10"/>
<path d="M54.3794 9.57404C56.6482 10.1046 65.4402 12.7479 66.6045 14.5527C67.3876 15.7578 65.4832 16.0548 64.6635 16.1006C60.9597 16.3025 47.3965 13.387 45.2288 10.5392C44.6482 9.77541 44.7754 9.3008 45.6545 8.95028C47.311 8.29933 52.5673 9.15485 54.3766 9.58435L54.3794 9.57404Z" stroke="#432918" stroke-width="1.3333" stroke-miterlimit="10"/>
</g>
<defs>
<clipPath id="clip0_73_335">
<rect width="66.1983" height="90.8685" fill="white" transform="translate(23.5185) rotate(15)"/>
</clipPath>
</defs>
</svg>
